<?xml version="1.0" standalone="no"?>
<!DOCTYPE svg PUBLIC "-//W3C//DTD SVG 20010904//EN"
 "http://www.w3.org/TR/2001/REC-SVG-20010904/DTD/svg10.dtd">
<svg version="1.0" xmlns="http://www.w3.org/2000/svg"
 width="1131.000000pt" height="1230.000000pt" viewBox="0 0 1131.000000 1230.000000"
 preserveAspectRatio="xMidYMid meet">
<metadata>
Created by potrace 1.16, written by Peter Selinger 2001-2019
</metadata>
<g transform="translate(0.000000,1230.000000) scale(0.100000,-0.100000)"
fill="#fff" stroke="none">
<path d="M7542 10975 c-35 -15 -136 -90 -165 -122 -36 -41 -144 -318 -201
-518 -13 -44 -42 -134 -65 -200 -24 -66 -47 -143 -52 -170 -12 -69 -61 -156
-110 -197 -22 -18 -57 -50 -78 -71 -52 -53 -91 -77 -125 -77 -38 0 -102 31
-152 74 -21 18 -50 37 -64 41 -14 4 -62 46 -107 92 -78 80 -129 113 -173 113
-38 0 -97 -38 -150 -97 -73 -82 -96 -127 -110 -213 -6 -41 -18 -97 -27 -123
-28 -90 -93 -426 -93 -485 0 -18 -7 -49 -16 -70 -25 -58 -65 -271 -58 -308 7
-40 17 -49 72 -63 25 -7 42 -18 42 -27 0 -27 -47 -108 -84 -145 -19 -19 -51
-64 -69 -100 -68 -128 -110 -205 -128 -230 -28 -40 -136 -260 -145 -294 -4
-16 -24 -69 -45 -116 -22 -48 -39 -91 -39 -95 0 -5 -18 -46 -41 -91 -22 -45
-43 -101 -46 -125 -3 -24 -12 -55 -19 -70 -23 -44 -61 -159 -73 -216 -6 -29
-19 -69 -30 -90 -10 -20 -22 -52 -26 -69 -9 -44 -44 -69 -113 -83 -31 -7 -75
-22 -97 -35 -22 -13 -66 -31 -98 -40 -31 -9 -70 -27 -86 -41 -16 -13 -48 -32
-72 -42 -24 -11 -91 -45 -149 -77 -58 -32 -130 -72 -160 -88 -30 -16 -64 -37
-75 -46 -11 -10 -65 -46 -120 -81 -55 -35 -131 -89 -170 -120 -38 -30 -88 -68
-110 -83 -65 -45 -138 -100 -174 -132 -97 -85 -238 -207 -301 -260 -106 -89
-411 -392 -539 -535 -62 -69 -147 -162 -189 -208 -42 -46 -81 -92 -87 -102
-11 -20 -58 -76 -127 -153 -76 -85 -134 -158 -189 -237 -29 -41 -67 -92 -85
-112 -18 -20 -41 -52 -50 -70 -9 -18 -31 -51 -49 -73 -17 -22 -43 -61 -58 -86
-14 -25 -33 -52 -42 -59 -9 -8 -26 -32 -37 -54 -11 -23 -50 -86 -87 -141 -64
-95 -108 -172 -190 -330 -84 -161 -155 -292 -172 -316 -10 -14 -29 -55 -42
-91 -14 -36 -30 -74 -35 -84 -60 -109 -202 -448 -221 -529 -7 -27 -25 -79 -41
-115 -15 -36 -43 -112 -60 -170 -18 -58 -40 -130 -50 -160 -25 -74 -98 -410
-118 -540 -12 -76 -17 -169 -16 -335 0 -211 2 -240 27 -353 15 -68 37 -142 51
-165 13 -23 27 -53 31 -67 11 -37 130 -194 182 -240 25 -21 91 -61 146 -88
111 -54 153 -63 403 -83 232 -18 455 13 583 83 40 22 98 48 127 58 29 10 86
38 126 62 68 42 161 88 174 88 12 0 161 95 204 129 57 47 125 94 220 153 42
26 113 86 160 134 47 47 109 101 137 120 98 63 232 176 407 345 72 70 156 148
187 175 31 27 82 79 113 116 31 37 66 74 77 82 60 42 453 443 544 556 38 47
72 87 75 90 4 3 30 40 59 82 49 74 72 91 86 68 10 -17 -22 -65 -182 -273 -81
-104 -104 -137 -137 -198 -14 -25 -55 -90 -91 -144 -88 -130 -354 -658 -381
-755 -3 -14 -17 -48 -29 -76 -13 -28 -36 -91 -50 -139 -31 -101 -30 -153 3
-228 18 -41 29 -51 77 -73 66 -30 99 -28 215 17 113 44 156 73 304 207 84 76
143 122 156 122 12 0 43 -21 71 -49 30 -30 68 -56 97 -66 61 -22 259 -32 333
-16 121 26 437 158 469 195 6 8 24 18 40 21 16 4 46 20 66 36 44 35 74 37 114
8 40 -30 86 -21 185 35 261 148 458 225 524 206 47 -13 71 -30 90 -61 25 -40
117 -99 156 -99 16 0 45 4 62 9 20 6 46 6 66 0 56 -15 160 13 236 64 36 25
100 64 141 87 41 23 102 67 136 98 33 32 77 70 97 85 20 15 40 40 43 55 3 15
12 41 20 59 29 65 13 116 -43 139 -33 14 -36 14 -71 -12 -21 -15 -41 -32 -47
-39 -17 -20 -148 -130 -185 -155 -19 -13 -47 -34 -61 -47 -27 -25 -119 -53
-174 -53 -27 0 -39 7 -59 33 -34 45 -33 80 5 139 30 46 31 51 19 92 -16 56 -8
70 76 137 36 29 78 63 93 77 14 13 49 41 78 63 40 30 60 55 87 109 l35 71 -19
42 c-36 77 -24 125 49 202 26 27 56 72 66 99 17 44 17 52 4 89 -16 45 -49 74
-94 83 -27 5 -38 -2 -101 -63 -86 -82 -277 -297 -321 -361 -33 -49 -72 -93
-183 -214 -35 -38 -70 -78 -78 -89 -15 -21 -51 -26 -53 -6 -2 24 3 42 17 58
17 19 18 93 3 140 -7 19 -29 51 -49 71 -69 68 -212 77 -306 19 -27 -17 -96
-57 -154 -90 -139 -80 -137 -78 -349 -286 -262 -257 -303 -301 -352 -382 -12
-21 -49 -72 -80 -113 -61 -79 -79 -115 -79 -156 0 -37 -75 -114 -111 -114 -44
0 -129 47 -176 99 -36 38 -43 52 -43 86 0 27 8 52 23 71 80 108 345 380 462
473 39 31 72 60 74 64 10 26 66 77 99 92 49 24 138 81 165 106 53 50 207 141
287 169 100 35 102 37 107 125 6 106 -6 123 -89 127 -34 2 -63 8 -65 14 -4 11
72 89 220 226 38 35 78 81 89 103 21 40 60 97 87 125 8 8 29 38 47 66 18 29
39 58 47 65 7 8 26 35 41 61 15 26 39 56 53 66 23 17 24 22 18 74 -9 69 -43
107 -102 115 -61 8 -95 -15 -137 -94 -25 -45 -63 -93 -115 -143 -43 -41 -106
-111 -140 -155 -33 -44 -81 -105 -106 -135 -24 -30 -57 -72 -72 -94 -35 -48
-150 -186 -206 -246 -23 -25 -57 -66 -74 -90 -104 -143 -144 -194 -198 -252
-33 -35 -68 -69 -77 -74 -9 -5 -81 -70 -159 -144 -78 -74 -149 -139 -158 -144
-50 -28 -177 -188 -224 -282 -14 -27 -33 -56 -42 -64 -9 -7 -23 -27 -32 -44
-8 -17 -32 -56 -52 -86 -20 -30 -45 -73 -56 -95 -20 -43 -212 -245 -232 -245
-7 0 -13 -6 -13 -14 0 -8 -24 -30 -54 -50 -66 -43 -162 -60 -185 -32 -26 31
10 172 84 324 25 52 45 99 45 106 0 11 71 157 105 216 8 14 33 66 57 115 23
50 56 109 73 131 16 23 59 83 95 134 36 50 98 134 137 186 40 52 81 107 90
122 10 15 20 29 23 32 3 3 14 21 24 40 11 19 58 91 105 159 47 68 91 131 96
140 6 9 12 18 15 21 3 3 22 41 44 85 21 44 58 107 81 140 23 33 54 90 70 127
18 44 46 87 82 125 43 45 59 71 70 113 15 58 63 151 95 186 10 12 21 39 25 60
3 21 11 46 18 54 6 8 11 39 11 69 -1 50 -3 54 -38 75 l-37 21 -46 -24 c-55
-29 -108 -87 -181 -198 -30 -45 -63 -87 -74 -93 -10 -6 -28 -29 -38 -53 -11
-23 -45 -73 -76 -112 -31 -38 -80 -101 -110 -140 -29 -38 -66 -81 -80 -95 -15
-14 -38 -45 -52 -70 -14 -25 -43 -58 -64 -74 -24 -18 -44 -44 -51 -64 -6 -19
-39 -67 -73 -106 -34 -39 -73 -87 -86 -106 -32 -45 -168 -201 -273 -312 -45
-48 -84 -98 -87 -112 -7 -34 -60 -89 -309 -315 -58 -53 -266 -247 -280 -262
-9 -9 -42 -44 -75 -78 -32 -33 -64 -61 -70 -61 -6 0 -43 -30 -81 -66 -39 -36
-86 -74 -106 -84 -20 -11 -79 -55 -130 -99 -137 -117 -134 -115 -259 -198 -63
-42 -133 -91 -157 -109 -23 -18 -53 -36 -65 -40 -13 -4 -52 -27 -88 -51 -68
-47 -296 -163 -320 -163 -7 0 -34 -13 -59 -29 -88 -57 -155 -80 -287 -102 -71
-12 -183 -23 -249 -26 -107 -4 -135 -1 -259 26 -96 21 -148 38 -170 54 -17 13
-50 34 -73 46 -29 14 -49 34 -63 62 -12 22 -36 57 -54 77 -50 57 -70 91 -100
166 -33 84 -43 132 -62 306 -23 214 7 534 71 760 49 171 98 337 126 425 16 50
39 119 50 155 12 36 50 126 86 200 36 74 81 174 100 222 19 47 47 106 62 130
16 25 34 62 41 84 7 21 44 99 82 173 46 89 67 140 62 153 -9 30 42 123 89 163
23 19 51 48 62 64 11 16 80 118 154 227 74 110 151 219 171 244 21 25 45 59
54 75 9 17 35 53 57 80 22 28 54 68 70 90 17 22 48 60 69 85 113 129 137 158
159 190 14 19 39 51 57 70 284 302 384 407 408 429 16 14 77 73 135 131 58 58
129 123 156 145 28 22 70 60 95 84 25 24 63 55 85 69 21 14 78 57 125 96 48
39 112 89 144 111 31 22 84 61 118 88 34 26 65 47 70 47 5 0 25 10 46 23 20
13 52 29 70 35 18 6 52 26 75 45 40 32 75 53 266 155 47 25 123 55 170 68 47
12 112 32 143 43 118 43 121 39 105 -170 -21 -286 -9 -668 24 -731 5 -10 16
-57 25 -105 24 -140 149 -426 234 -538 26 -33 54 -74 63 -91 9 -17 23 -37 33
-45 9 -8 36 -39 58 -69 47 -63 159 -171 202 -193 16 -8 38 -25 49 -37 11 -13
40 -31 65 -42 25 -11 59 -32 75 -48 17 -15 81 -53 142 -84 134 -67 142 -80 94
-154 -16 -26 -38 -79 -46 -117 -9 -38 -39 -113 -66 -167 l-50 -97 7 -95 c4
-53 9 -96 13 -97 75 -9 93 -5 142 35 28 22 60 56 72 76 11 19 24 37 27 40 4 3
15 37 25 75 25 95 40 123 81 147 29 17 34 25 29 45 -10 40 13 99 50 132 46 40
96 49 156 28 30 -11 55 -14 75 -9 48 13 141 7 183 -13 40 -18 41 -17 121 8 44
14 87 24 95 21 22 -9 160 23 249 58 52 20 101 31 146 34 58 3 77 9 125 39 57
37 152 77 214 90 19 4 59 23 89 42 30 20 91 49 136 65 45 16 111 47 148 69 36
21 69 39 73 39 3 0 20 14 38 31 18 16 46 37 62 46 17 9 55 32 85 52 30 20 72
44 92 53 20 10 55 33 77 53 23 21 54 38 76 42 25 4 44 16 66 44 17 22 36 39
42 39 6 0 32 20 57 45 81 80 225 210 265 240 22 16 67 55 101 86 45 43 71 59
100 64 65 10 306 138 394 209 144 117 196 164 314 283 195 196 314 323 343
368 14 22 45 60 68 85 23 25 52 61 65 80 13 19 43 56 66 81 24 26 49 62 57 81
8 18 33 55 56 81 22 27 41 52 41 56 0 5 19 30 43 56 44 50 82 114 163 274 26
51 61 114 78 140 55 82 172 399 188 511 17 122 37 352 39 465 4 164 -40 578
-77 720 -66 256 -151 490 -198 546 -14 16 -28 39 -31 51 -24 81 -146 301 -230
413 -98 131 -412 432 -500 479 -27 15 -71 42 -96 59 -115 79 -187 117 -224
117 -17 0 -46 11 -64 24 -88 65 -445 132 -686 129 -133 -1 -407 -35 -455 -56
-19 -8 -63 -20 -97 -26 -34 -6 -87 -23 -118 -37 -62 -27 -233 -74 -270 -74
-34 0 -118 45 -171 90 -25 22 -55 45 -67 51 -12 6 -76 67 -143 135 -143 147
-169 161 -242 129z m66 -460 c20 -9 46 -24 57 -35 11 -10 47 -34 79 -52 68
-38 81 -55 73 -91 -5 -17 -21 -32 -54 -48 -76 -35 -194 -109 -244 -151 -70
-58 -129 -49 -129 21 0 12 15 63 34 114 19 50 42 117 50 148 18 65 49 109 77
109 11 0 36 -7 57 -15z m1633 -75 c165 -29 277 -61 351 -100 42 -22 83 -40 91
-40 17 0 168 -77 222 -113 108 -73 263 -214 280 -254 9 -20 28 -39 53 -52 39
-20 113 -111 237 -294 28 -40 64 -91 82 -113 17 -22 35 -58 39 -79 4 -22 21
-69 39 -105 18 -36 42 -93 53 -126 11 -34 27 -75 37 -93 28 -55 111 -371 131
-501 21 -129 28 -490 15 -675 -12 -168 -41 -289 -111 -460 -15 -38 -33 -85
-39 -104 -6 -19 -22 -48 -35 -65 -13 -17 -37 -63 -53 -102 -31 -74 -135 -237
-184 -289 -15 -16 -35 -48 -45 -70 -26 -63 -103 -186 -148 -236 -22 -25 -79
-94 -125 -153 -46 -59 -91 -112 -100 -119 -9 -7 -29 -33 -44 -59 -15 -25 -46
-61 -69 -79 -24 -18 -80 -69 -124 -113 -117 -117 -160 -150 -270 -211 -104
-57 -150 -67 -210 -45 -33 13 -25 21 46 44 80 27 244 114 275 146 14 15 28 43
32 62 9 56 -32 87 -107 80 -8 -1 -84 -6 -169 -12 l-154 -11 -39 38 c-34 33
-45 38 -84 37 -34 -1 -55 -9 -87 -33 -77 -58 -96 -64 -192 -65 -107 -2 -157
-20 -183 -67 -9 -18 -36 -54 -59 -79 -45 -49 -55 -89 -33 -130 13 -24 72 -60
99 -60 33 0 25 -17 -24 -45 -52 -31 -74 -28 -124 19 -44 41 -61 83 -61 154 0
45 6 71 26 108 15 27 27 65 27 84 0 44 -25 95 -58 116 -28 18 -116 21 -160 4
-37 -14 -160 -146 -188 -202 -17 -32 -32 -46 -62 -58 -22 -8 -76 -41 -120 -72
-44 -32 -102 -66 -130 -76 -27 -9 -97 -41 -154 -70 -57 -29 -123 -55 -145 -59
-23 -3 -63 -17 -90 -30 -50 -25 -76 -25 -76 1 0 16 88 189 137 271 51 84 81
138 107 190 13 28 36 61 51 75 15 14 51 72 80 130 59 118 123 226 168 283 16
21 49 76 73 123 24 46 62 107 84 135 22 28 40 56 40 63 0 7 13 31 28 52 16 21
41 61 56 87 16 26 62 84 103 127 57 61 86 83 126 98 29 11 74 32 101 46 27 14
59 26 72 26 12 0 53 16 91 35 37 20 88 40 113 46 24 6 94 30 155 53 169 67
496 143 731 170 101 12 133 20 196 50 84 40 115 68 124 112 8 41 -29 84 -98
114 -47 20 -62 22 -154 16 -56 -4 -144 -16 -196 -27 -51 -11 -127 -26 -168
-35 -41 -8 -102 -25 -135 -38 -33 -13 -76 -27 -96 -30 -20 -4 -84 -24 -142
-46 -59 -22 -147 -51 -197 -65 -51 -13 -113 -38 -139 -55 -42 -26 -101 -41
-101 -24 0 21 37 77 66 99 19 14 34 32 34 39 0 8 16 37 35 65 19 28 35 55 35
60 0 5 18 31 40 56 22 26 48 61 56 78 9 18 33 50 54 73 20 22 53 65 72 95 19
30 45 63 58 74 12 11 33 43 45 70 12 28 44 70 70 95 25 25 56 62 66 83 35 67
148 213 230 297 20 20 46 57 57 81 18 40 100 150 201 269 21 25 45 59 54 77 9
17 29 41 44 53 37 29 52 58 53 100 0 60 -53 110 -118 110 -44 0 -120 -56 -172
-127 -95 -129 -142 -190 -193 -253 -29 -36 -77 -102 -105 -147 -29 -45 -63
-93 -76 -106 -12 -12 -35 -45 -51 -72 -16 -28 -42 -68 -60 -90 -17 -22 -46
-63 -63 -92 -18 -28 -40 -57 -48 -64 -9 -7 -26 -33 -39 -58 -13 -25 -48 -73
-78 -107 -30 -33 -62 -76 -70 -95 -8 -18 -29 -53 -48 -75 -19 -23 -42 -55 -51
-70 -10 -16 -42 -63 -72 -104 -30 -41 -64 -91 -75 -110 -10 -19 -45 -68 -76
-109 -31 -41 -86 -119 -121 -173 -36 -54 -69 -98 -74 -98 -4 0 -18 -21 -31
-46 -37 -77 -77 -114 -167 -156 -76 -35 -257 -151 -437 -279 -38 -27 -86 -56
-105 -65 -19 -8 -51 -30 -70 -48 -19 -18 -50 -43 -68 -55 -28 -19 -183 -166
-247 -233 -11 -12 -33 -33 -48 -47 -138 -128 -261 -265 -297 -331 -23 -42 -97
-120 -114 -120 -18 0 -39 37 -55 98 -7 24 -28 60 -47 82 -19 21 -41 58 -50 83
-17 50 -118 175 -184 228 -23 19 -66 54 -95 79 -75 63 -165 119 -205 126 -19
4 -58 17 -86 30 -47 22 -140 39 -344 63 l-55 6 1 77 c1 45 8 94 18 118 9 22
16 53 16 69 0 16 11 53 25 83 14 29 25 62 25 73 0 11 11 43 24 71 13 28 36 93
51 145 15 52 35 108 45 124 10 17 30 66 46 110 15 44 35 92 45 106 10 14 34
59 53 100 55 114 103 200 125 220 11 11 25 38 31 62 14 52 52 94 106 117 49
22 60 36 44 55 -10 12 -5 30 25 93 20 42 48 88 60 102 13 14 37 49 55 79 35
61 76 114 138 178 23 25 42 49 42 54 0 5 21 31 48 58 48 50 208 221 297 319
77 85 229 246 240 255 5 4 47 19 92 32 70 22 88 33 133 79 29 29 63 72 77 95
14 24 50 58 85 82 34 23 78 57 98 75 21 19 59 43 85 55 26 12 66 35 89 53 23
17 82 49 131 70 186 79 231 101 274 133 24 18 53 33 64 33 11 0 65 16 121 34
56 19 144 44 196 56 52 11 115 26 140 32 113 28 454 32 591 8z m-2922 -1053
c15 -13 47 -32 74 -41 46 -17 67 -39 67 -69 0 -8 -26 -44 -57 -80 -114 -129
-140 -162 -158 -197 -22 -44 -54 -80 -72 -80 -7 0 -13 3 -13 8 0 35 25 146 50
220 17 50 30 113 30 139 0 67 17 123 37 123 9 0 28 -11 42 -23z m1541 -2429
c0 -13 -23 -52 -51 -87 -27 -36 -66 -98 -85 -138 -20 -40 -51 -96 -70 -124
-19 -28 -34 -57 -34 -64 0 -6 -13 -30 -29 -52 -16 -22 -37 -55 -46 -74 -10
-19 -34 -56 -55 -84 -21 -27 -42 -62 -45 -77 -4 -16 -22 -47 -41 -70 -19 -24
-34 -46 -34 -50 0 -11 -117 -225 -176 -320 -29 -47 -60 -103 -69 -124 -22 -54
-83 -124 -107 -124 -11 0 -57 20 -103 45 -87 48 -94 56 -116 147 -10 41 -8 60
12 139 12 50 32 106 44 123 12 18 37 60 55 94 46 88 144 203 325 386 120 121
281 266 295 266 5 0 27 15 47 34 21 18 54 41 73 51 19 10 55 35 80 55 48 40
97 69 118 70 6 0 12 -10 12 -22z m-2170 -421 c41 -19 92 -40 112 -45 81 -22
266 -175 323 -267 10 -16 31 -44 47 -61 16 -17 37 -53 47 -80 11 -27 35 -85
54 -129 56 -126 86 -259 98 -435 12 -163 6 -450 -10 -560 -34 -228 -34 -226
-64 -234 -49 -13 -350 163 -381 223 -14 26 -99 104 -144 132 -12 8 -32 34 -44
59 -12 24 -36 60 -53 80 -46 51 -130 213 -155 299 -12 41 -31 91 -41 110 -10
20 -19 44 -19 54 0 10 -13 73 -30 140 -16 67 -34 156 -40 197 -11 86 -8 380 5
400 5 8 8 42 7 76 -2 81 5 86 123 81 78 -4 100 -9 165 -40z m2387 -894 c6 -16
13 -49 16 -76 4 -37 13 -57 43 -91 22 -24 54 -62 72 -84 40 -51 76 -62 197
-62 76 0 96 4 131 24 22 13 61 30 86 38 25 9 64 30 88 47 24 17 49 31 55 31 7
0 18 7 25 15 9 11 29 14 82 12 38 -2 74 -9 80 -15 16 -16 2 -41 -33 -60 -18
-9 -53 -36 -80 -58 -26 -23 -69 -57 -96 -75 -26 -18 -71 -54 -100 -81 -28 -26
-56 -48 -62 -48 -5 0 -23 -11 -40 -26 -27 -23 -84 -57 -226 -135 -27 -15 -102
-57 -165 -93 -63 -36 -121 -66 -128 -66 -7 0 -52 -20 -100 -44 -48 -24 -112
-51 -142 -61 -30 -10 -104 -37 -165 -60 -60 -23 -132 -45 -159 -49 -27 -3 -92
-21 -145 -38 -94 -32 -99 -33 -281 -33 -102 0 -198 4 -213 8 -27 7 -28 10 -22
50 8 56 23 92 60 152 18 28 60 104 94 169 35 66 67 127 72 135 4 9 17 37 28
63 17 41 28 51 80 78 33 16 64 29 68 28 10 -2 27 5 145 58 54 24 100 44 103
44 3 0 48 20 101 45 52 25 97 45 101 45 3 0 21 11 39 25 18 14 100 62 181 106
81 44 155 87 163 95 21 21 34 17 47 -13z m-1215 -400 c24 -22 22 -49 -7 -103
-13 -25 -53 -103 -89 -175 -96 -194 -163 -279 -182 -230 -4 8 10 96 30 195 20
99 36 198 36 220 0 23 7 56 14 75 l15 35 82 0 c63 0 87 -4 101 -17z m-266
-3157 c7 -29 -15 -82 -53 -127 -16 -19 -46 -57 -67 -86 -20 -29 -51 -64 -69
-79 -18 -14 -70 -63 -117 -109 -125 -121 -274 -236 -368 -284 -34 -17 -46 -19
-63 -10 -33 17 -20 96 27 167 47 71 189 219 279 290 39 31 76 62 83 69 8 7 35
27 60 45 26 17 65 47 86 65 51 43 132 83 168 83 21 0 29 -6 34 -24z"/>
<path d="M7921 9772 c-52 -20 -143 -122 -191 -214 -17 -32 -41 -65 -55 -74
-14 -9 -54 -58 -89 -108 -63 -91 -113 -149 -232 -269 -34 -34 -68 -78 -76 -97
-8 -20 -31 -48 -52 -63 -20 -16 -43 -42 -52 -60 -9 -18 -36 -53 -60 -79 -38
-41 -44 -53 -44 -92 0 -64 30 -97 96 -103 82 -8 270 39 373 92 46 25 92 45
100 45 9 0 41 12 71 26 96 45 307 122 382 139 108 25 201 53 219 68 39 31 49
82 25 138 -25 61 -49 74 -130 73 -85 -1 -276 -50 -386 -100 -146 -66 -166 -33
-47 76 27 24 56 58 64 74 16 31 83 110 172 201 73 75 111 140 111 192 0 111
-96 176 -199 135z"/>
<path d="M6584 8657 c-33 -12 -81 -34 -106 -49 -26 -16 -51 -28 -55 -28 -5 0
-24 -11 -42 -24 -18 -13 -49 -27 -69 -31 -54 -10 -80 -30 -88 -70 -10 -53 21
-139 64 -176 31 -28 40 -30 76 -25 22 4 61 18 85 32 24 13 45 24 47 24 24 0
-62 -129 -114 -171 -16 -13 -42 -44 -57 -69 -15 -25 -49 -67 -74 -95 -26 -27
-57 -67 -70 -87 -12 -21 -26 -38 -30 -38 -4 0 -19 -19 -34 -42 -15 -24 -90
-105 -166 -182 -121 -121 -144 -149 -180 -221 -47 -94 -45 -122 8 -150 45 -23
88 -19 166 16 62 28 78 41 145 121 41 50 126 143 188 207 61 63 112 119 112
125 0 5 17 32 38 60 21 28 45 62 52 76 16 29 80 106 167 199 34 36 76 87 95
112 54 75 90 125 141 197 47 65 49 69 45 125 -4 49 -9 63 -39 93 -47 50 -142
94 -199 93 -25 0 -72 -10 -106 -22z"/>
<path d="M7698 8301 c-25 -16 -64 -54 -86 -83 -61 -83 -184 -199 -207 -196
-10 2 -32 22 -47 44 -48 72 -103 78 -226 24 -46 -21 -62 -46 -106 -174 -12
-33 -26 -61 -33 -63 -6 -2 -18 18 -27 45 -9 27 -25 56 -34 64 -28 24 -99 48
-143 48 -35 0 -47 -6 -78 -38 -20 -21 -48 -59 -63 -84 -26 -42 -28 -54 -28
-144 0 -113 26 -226 65 -285 31 -48 103 -84 153 -76 80 13 175 46 200 70 15
13 43 32 63 41 23 11 53 41 83 82 51 71 63 78 151 88 72 9 189 65 254 122 129
115 161 158 207 281 39 104 27 224 -24 252 -27 14 -21 15 -74 -18z"/>
<path d="M8335 6828 c-31 -20 -107 -106 -149 -171 -21 -31 -42 -60 -47 -63 -5
-3 -9 -21 -9 -41 0 -68 80 -113 165 -93 22 5 76 10 121 10 101 0 223 36 268
78 17 16 48 39 70 52 42 26 76 73 76 108 0 72 -63 101 -249 113 -75 5 -156 12
-181 14 -27 3 -53 0 -65 -7z"/>
<path d="M3895 7920 c-175 -19 -432 -174 -625 -378 -106 -113 -149 -166 -162
-204 -6 -18 -25 -50 -43 -70 -17 -21 -44 -74 -60 -118 -24 -72 -27 -90 -21
-153 10 -112 22 -142 82 -210 44 -49 77 -73 156 -114 95 -50 104 -53 176 -53
96 0 138 19 234 109 40 38 120 96 178 131 58 34 122 78 142 96 21 18 59 44 86
58 27 13 61 42 77 63 15 21 47 56 69 79 23 22 55 60 71 83 17 24 40 57 53 74
33 45 52 121 52 206 0 97 -12 140 -61 222 -47 79 -63 94 -153 148 -76 45 -96
47 -251 31z m-52 -331 c44 -23 95 -86 107 -130 7 -24 10 -70 8 -101 -4 -49
-12 -68 -51 -125 -25 -38 -61 -77 -79 -89 -18 -11 -58 -36 -88 -56 -117 -75
-172 -93 -230 -78 -56 16 -65 25 -69 73 -1 11 -72 77 -82 77 -31 0 19 145 78
227 61 85 180 182 252 204 40 11 130 10 154 -2z"/>
<path d="M2036 6484 c-146 -32 -259 -114 -430 -312 -114 -132 -223 -381 -233
-532 -7 -107 6 -168 57 -273 46 -94 103 -148 179 -167 25 -6 78 -20 116 -31
39 -10 81 -19 95 -19 49 0 169 68 253 142 168 150 222 207 319 337 94 124 103
140 131 235 45 148 44 250 -2 366 -27 65 -48 99 -90 144 -112 117 -220 147
-395 110z m65 -381 c78 -75 88 -96 95 -210 7 -97 6 -102 -22 -159 -16 -32 -54
-84 -84 -117 l-55 -59 -104 1 c-117 2 -151 13 -200 64 -33 35 -34 38 -38 140
-5 97 -3 110 20 159 13 29 52 87 85 129 67 85 89 96 195 98 56 1 60 -1 108
-46z"/>
<path d="M731 4649 c-91 -20 -112 -33 -212 -130 -89 -87 -175 -204 -198 -270
-10 -30 -28 -73 -39 -96 -12 -22 -26 -62 -33 -89 -6 -27 -20 -68 -31 -90 -10
-23 -24 -83 -30 -133 -21 -167 23 -357 102 -449 19 -22 43 -52 53 -66 10 -15
53 -43 95 -64 73 -35 83 -37 192 -40 l115 -3 70 45 c76 50 125 109 174 212 16
34 59 101 95 148 36 47 75 105 87 129 12 23 32 56 44 72 38 53 86 195 92 271
5 57 0 93 -21 178 -37 146 -96 235 -204 306 -42 28 -82 50 -89 50 -8 0 -39 9
-70 20 -68 24 -83 24 -192 -1z m35 -378 c16 -5 41 -12 55 -15 45 -10 126 -103
155 -179 28 -73 28 -88 -1 -194 -28 -101 -113 -193 -233 -248 -47 -22 -102 -4
-162 55 -36 36 -52 60 -65 106 -37 126 -29 262 21 374 38 85 70 110 143 110
32 0 71 -4 87 -9z"/>
<path d="M7650 2147 c-88 -43 -143 -104 -165 -181 -27 -96 -27 -101 -8 -125
l19 -23 65 22 c35 13 84 38 109 55 25 18 75 47 113 64 l67 32 0 58 c0 80 -26
104 -113 108 -34 1 -73 -3 -87 -10z"/>
<path d="M9950 1639 c-14 -4 -45 -8 -70 -9 -25 -1 -39 -4 -32 -7 17 -7 15 -23
-3 -23 -9 0 -15 -9 -15 -25 0 -14 -4 -25 -10 -25 -12 0 -50 -37 -50 -48 0 -5
-19 -16 -41 -25 l-42 -16 7 -56 c8 -72 38 -149 76 -196 29 -37 29 -38 15 -79
-8 -24 -15 -53 -15 -66 0 -21 -3 -20 -44 19 -29 28 -67 52 -112 69 -82 31
-154 48 -154 37 0 -4 4 -9 9 -11 5 -1 12 -29 16 -61 7 -58 7 -59 -16 -55 -22
3 -24 7 -22 56 1 28 -2 52 -7 52 -6 0 -10 -9 -10 -20 0 -14 -7 -20 -24 -20
-24 0 -36 -16 -36 -51 0 -14 -7 -19 -30 -19 -37 0 -37 -5 -2 -39 46 -47 89
-100 89 -113 1 -7 10 -34 20 -60 18 -46 19 -47 36 -28 19 23 22 40 7 40 -5 0
-10 18 -10 40 0 36 -2 40 -25 40 -20 0 -25 5 -25 25 0 18 5 25 19 25 11 0 26
3 35 6 13 5 16 -2 16 -35 0 -23 5 -41 10 -41 6 0 10 7 10 15 0 10 10 15 30 15
17 0 30 -4 30 -10 0 -5 13 -10 29 -10 29 0 29 0 36 78 3 42 7 86 8 97 2 17 10
12 54 -30 45 -44 52 -56 56 -97 4 -45 3 -48 -20 -48 -13 0 -39 -7 -58 -14 -19
-8 -35 -12 -35 -9 0 3 -6 1 -12 -4 -23 -18 -58 -22 -58 -7 0 9 -11 14 -30 14
-27 0 -30 -3 -30 -30 0 -17 5 -30 13 -30 12 -1 -71 -79 -84 -80 -4 0 -10 17
-14 38 -9 54 -47 132 -83 173 -27 31 -35 34 -72 31 -25 -3 -39 -9 -37 -16 5
-16 48 -20 58 -5 19 31 99 -86 125 -184 13 -49 12 -52 -18 -118 -30 -63 -33
-67 -56 -58 -30 12 -142 9 -142 -2 0 -5 -54 -9 -120 -9 -102 0 -119 2 -114 15
9 23 -6 18 -28 -10 -20 -25 -127 -65 -175 -65 -20 0 -23 4 -18 20 3 11 3 20
-2 20 -5 0 -17 24 -27 53 -22 61 -131 176 -193 203 -63 27 -143 52 -137 43 3
-5 -3 -9 -14 -9 -22 0 -172 -142 -172 -163 0 -8 -7 -18 -16 -21 -23 -9 -26 -8
-18 7 4 6 -3 3 -15 -8 -21 -18 -21 -20 -5 -32 10 -7 27 -13 38 -14 31 -1 107
-8 143 -15 43 -7 83 -44 83 -78 0 -14 9 -34 21 -44 44 -36 79 -70 79 -77 0 -3
7 -14 16 -22 13 -14 17 -14 25 -2 6 10 9 10 9 2 0 -7 5 -13 10 -13 10 0 50
-36 50 -45 0 -12 -17 -3 -43 20 -20 19 -27 22 -27 10 0 -8 8 -15 18 -15 14 0
15 -2 2 -10 -12 -7 -8 -11 18 -16 24 -5 30 -9 20 -15 -11 -7 -10 -11 2 -19 13
-9 13 -10 0 -10 -12 0 -13 -2 -1 -9 11 -7 11 -9 0 -13 -11 -4 -10 -8 4 -22 12
-12 17 -14 17 -4 0 10 3 9 10 -2 11 -17 -7 -39 -64 -82 -26 -19 -42 -25 -46
-17 -5 6 -9 2 -13 -10 -3 -12 -2 -19 3 -16 4 3 13 -2 20 -10 7 -8 23 -15 35
-15 37 0 54 -10 48 -27 -5 -12 -3 -14 7 -8 8 5 11 4 7 -2 -4 -6 -4 -25 -1 -42
5 -26 11 -31 34 -31 26 0 28 3 35 57 9 77 49 167 71 159 8 -3 22 -6 30 -6 9 0
14 -11 14 -34 0 -31 3 -34 38 -40 20 -3 82 -6 138 -6 l101 0 0 45 c0 25 5 51
11 57 7 7 12 23 12 36 0 13 10 46 21 73 19 44 25 50 60 55 23 4 39 12 39 20 0
10 14 14 50 14 41 0 50 -3 51 -17 0 -15 2 -15 9 2 7 18 9 18 19 -9 17 -42 24
-25 11 25 -8 27 -10 70 -6 109 8 84 9 88 31 133 14 27 25 37 42 37 26 0 31 17
6 22 -14 2 -11 10 17 41 64 73 146 116 253 132 33 5 47 4 47 -4 0 -18 41 -104
46 -98 3 3 -3 22 -14 44 -11 21 -23 64 -26 95 l-7 57 25 -5 c24 -4 26 -2 26
31 0 19 5 35 10 35 6 0 10 14 10 30 0 17 2 30 4 30 2 0 24 -11 47 -25 24 -14
49 -25 54 -25 6 0 -16 15 -48 32 -72 39 -151 122 -143 152 3 12 8 63 12 114 4
51 11 95 15 98 4 2 6 11 2 19 -3 10 2 15 16 15 16 0 21 6 21 25 0 16 6 25 15
25 8 0 15 9 15 19 0 16 10 20 63 26 57 7 76 16 77 38 0 5 -4 6 -9 3 -5 -4 -11
-2 -13 2 -1 5 -14 5 -28 1z m-1132 -1246 l47 -38 -38 -34 c-35 -31 -87 -115
-93 -149 -4 -24 -14 -26 -14 -3 0 12 -4 19 -10 16 -5 -3 -10 -1 -10 6 0 7 -7
20 -16 30 -14 16 -13 20 13 57 16 21 37 58 47 80 11 23 23 42 29 42 5 0 4 7
-3 15 -22 26 -1 16 48 -22z m338 -15 l-23 -52 -89 1 c-73 0 -90 3 -92 16 -2 9
-16 17 -34 19 l-31 3 48 24 c63 31 95 39 177 40 l67 1 -23 -52z"/>
<path d="M8958 994 c-3 -3 3 -28 14 -57 14 -35 19 -67 15 -99 -3 -36 -1 -48 9
-48 8 0 14 3 14 8 0 14 -19 124 -25 140 -4 15 8 17 120 14 118 -3 125 -2 125
16 0 14 -9 21 -31 26 -39 7 -234 8 -241 0z"/>
<path d="M11286 819 c-9 -55 -49 -132 -97 -183 -41 -45 -132 -99 -186 -111
l-31 -6 9 38 c5 21 8 58 8 83 -1 39 -3 34 -15 -34 -32 -179 -144 -298 -314
-336 -30 -6 -68 -10 -84 -8 -25 3 -30 10 -46 61 l-18 58 24 56 c14 31 23 63
21 72 -2 10 -7 5 -12 -14 -15 -57 -54 -123 -101 -169 -49 -49 -98 -80 -117
-74 -7 2 -25 -9 -42 -24 -19 -18 -24 -28 -15 -28 19 0 77 21 109 39 22 12 26
11 39 -5 30 -41 61 -113 73 -172 7 -34 17 -62 22 -62 4 0 7 8 6 17 -1 10 5 42
14 72 9 30 17 78 17 106 l0 52 82 6 c61 5 84 3 89 -6 76 -132 195 -200 354
-201 72 0 100 4 139 22 27 12 51 22 53 22 3 0 2 -20 -1 -45 -4 -27 -3 -45 2
-45 13 0 20 90 7 90 -5 0 1 10 15 21 30 25 21 22 -45 -12 -140 -73 -304 -55
-424 47 -34 28 -91 100 -91 114 0 4 29 27 64 50 66 42 120 99 149 157 14 26
28 35 74 48 109 31 208 116 252 216 20 44 38 129 29 129 -3 0 -8 -18 -12 -41z"/>
</g>
</svg>
